<?xml version="1.0" encoding="UTF-8" standalone="no"?>
<svg
   xmlns:dc="http://purl.org/dc/elements/1.1/"
   xmlns:cc="http://creativecommons.org/ns#"
   xmlns:rdf="http://www.w3.org/1999/02/22-rdf-syntax-ns#"
   xmlns:svg="http://www.w3.org/2000/svg"
   xmlns="http://www.w3.org/2000/svg"
   xmlns:sodipodi="http://sodipodi.sourceforge.net/DTD/sodipodi-0.dtd"
   xmlns:inkscape="http://www.inkscape.org/namespaces/inkscape"
   width="110.29161mm"
   height="207.94241mm"
   viewBox="0 0 110.29161 207.94241"
   version="1.1"
   id="svg8"
   sodipodi:docname="lulu.svg"
   inkscape:version="1.0 (4035a4fb49, 2020-05-01)"
   inkscape:export-filename="C:\Users\Pillowfication\Desktop\luluico.png"
   inkscape:export-xdpi="96"
   inkscape:export-ydpi="96">
  <defs
     id="defs2">
    <pattern
       y="0"
       x="0"
       height="6"
       width="6"
       patternUnits="userSpaceOnUse"
       id="EMFhbasepattern" />
    <pattern
       y="0"
       x="0"
       height="6"
       width="6"
       patternUnits="userSpaceOnUse"
       id="EMFhbasepattern-7" />
    <pattern
       y="0"
       x="0"
       height="6"
       width="6"
       patternUnits="userSpaceOnUse"
       id="EMFhbasepattern-0" />
  </defs>
  <sodipodi:namedview
     id="base"
     pagecolor="#ffffff"
     bordercolor="#666666"
     borderopacity="1.0"
     inkscape:pageopacity="0.0"
     inkscape:pageshadow="2"
     inkscape:zoom="0.7"
     inkscape:cx="-143.25323"
     inkscape:cy="75.263518"
     inkscape:document-units="mm"
     inkscape:current-layer="layer1"
     inkscape:document-rotation="0"
     showgrid="false"
     inkscape:window-width="1440"
     inkscape:window-height="2497"
     inkscape:window-x="2552"
     inkscape:window-y="-8"
     inkscape:window-maximized="1" />
  <metadata
     id="metadata5">
    <rdf:RDF>
      <cc:Work
         rdf:about="">
        <dc:format>image/svg+xml</dc:format>
        <dc:type
           rdf:resource="http://purl.org/dc/dcmitype/StillImage" />
        <dc:title />
      </cc:Work>
    </rdf:RDF>
  </metadata>
  <g
     inkscape:label="Layer 1"
     inkscape:groupmode="layer"
     id="layer1"
     transform="translate(-48.880118,-40.221753)">
    <g
       inkscape:export-filename="C:\Users\Pillowfication\Desktop\g893.png"
       id="g893"
       style="stroke-width:0.782519;stroke-miterlimit:4;stroke-dasharray:none;paint-order:markers fill stroke"
       transform="matrix(1.0223388,0,0,1.0223388,28.519786,20.734812)"
       inkscape:export-xdpi="96"
       inkscape:export-ydpi="96">
      <g
         style="stroke-width:0.782519;stroke-miterlimit:4;stroke-dasharray:none"
         id="g899" />
    </g>
    <path
       inkscape:export-filename="C:\Users\Pillowfication\Desktop\g893.png"
       id="path876"
       style="fill:#e9c6af;stroke:#000000;stroke-width:0.8;stroke-linecap:round;stroke-linejoin:round;stroke-miterlimit:4;stroke-dasharray:none;stroke-opacity:1"
       d="m 137.3996,127.0119 c 0,0 2.01178,9.31504 1.93302,10.49061 -0.0787,1.17557 0.0131,2.85986 0.13617,3.55707 0.24637,1.39599 3.28445,4.15141 3.24586,5.54863 -0.0579,2.09329 -2.6878,1.879 -3.04383,2.93546 -0.35603,1.05644 0.12997,1.2821 6.2e-4,1.9643 -0.12926,0.68219 -1.886,1.55921 -1.886,1.55921 0,0 0.62246,0.69767 0.34533,1.54659 -0.27713,0.84893 -1.39027,0.36048 -2.0349,1.43852 -0.64464,1.07804 0.81151,3.28968 -0.95894,4.74768 -1.77044,1.458 -6.91876,-0.21621 -8.38278,0.39003 -0.74083,0.30677 -3.81235,12.70715 -9.60578,22.93242 -12.49939,2.60527 -21.286032,-4.48032 -21.286032,-4.48032 l 15.690982,-55.11737 27.45353,-2.44846 -1.60725,4.93563"
       sodipodi:nodetypes="cssssccssssccccc"
       inkscape:export-xdpi="96"
       inkscape:export-ydpi="96" />
    <path
       sodipodi:nodetypes="ssss"
       id="path892"
       d="m 90.071702,184.01949 c 2.214631,-7.56841 6.536122,-12.5414 10.330068,-13.44895 10.34489,-2.4746 32.52694,11.78051 32.29404,13.49226 -0.63501,4.66697 -42.986222,1.19419 -42.624108,-0.0433 z"
       style="fill:#0f3d87;fill-opacity:1;stroke:#000000;stroke-width:0.8;stroke-linecap:butt;stroke-linejoin:miter;stroke-miterlimit:4;stroke-dasharray:none;stroke-opacity:1" />
    <g
       inkscape:export-ydpi="96"
       inkscape:export-xdpi="96"
       inkscape:export-filename="C:\Users\Pillowfication\Desktop\g893.png"
       transform="matrix(0.62381176,0,0,0.62381176,39.556177,35.674834)"
       id="g980"
       style="fill:#0f3d87;fill-opacity:1;stroke-width:1.28244;stroke-miterlimit:4;stroke-dasharray:none">
      <g
         id="g995"
         style="fill:#0f3d87;fill-opacity:1;stroke-width:1.28244;stroke-miterlimit:4;stroke-dasharray:none">
        <path
           style="fill:#0f3d87;fill-opacity:1;stroke:#000000;stroke-width:1.28244;stroke-linecap:round;stroke-linejoin:round;stroke-miterlimit:4;stroke-dasharray:none;stroke-opacity:1"
           d="M 145.4961,126.26254 C 145.26484,126.49381 131.55388,108.04223 125.31726,98.800596 116.02354,85.028863 108.38266,67.554631 98.85758,55.903837 88.462604,43.189012 76.268551,34.766818 62.642559,28.642346 53.44587,24.508712 47.519079,9.406204 48.076369,7.928958 46.847681,12.449033 47.009614,17.338154 47.622894,22.472219 43.689672,19.292532 40.284778,14.881754 37.56647,8.871117 c -0.550597,0.219728 0.287904,12.846057 2.078869,15.442345 -4.193919,-4.407061 -8.751698,-7.924148 -14.420514,-9.435497 7.577057,6.492347 9.159015,8.92471 12.695302,14.03165 -3.563594,-2.734184 -6.124926,-3.917011 -9.68852,-3.674956 2.604253,1.516437 4.969501,4.046669 5.746295,5.61266 -2.467992,-1.419462 -6.320409,-2.863679 -10.623964,1.362634 8.581512,-2.665352 12.729868,4.014665 14.204426,6.118946 -3.172504,-2.460654 -5.451759,-1.784394 -7.4363,-1.029361 2.459694,0.05223 8.981047,4.102441 10.203489,8.047153 3.392362,10.94685 7.281393,22.095714 12.027129,30.335092 8.928884,15.502012 20.011625,26.503317 32.139159,34.878667 10.524534,7.26831 38.533339,14.582 37.952699,14.06588 z"
           id="path903"
           sodipodi:nodetypes="cssscccccccccccssscc"
           inkscape:export-xdpi="96"
           inkscape:export-ydpi="96" />
        <path
           style="fill:#0f3d87;fill-opacity:1;stroke:#000000;stroke-width:1.28244;stroke-linecap:round;stroke-linejoin:round;stroke-miterlimit:4;stroke-dasharray:none;stroke-opacity:1"
           d="m 42.448313,195.98548 c -14.098468,22.45065 -14.667063,52.91184 -14.289088,65.00708 0.377976,12.09525 2.66203,22.24415 4.346728,32.88393 1.60916,10.16272 1.63545,17.57364 0.42492,24.33611 -1.451286,8.10741 -4.264531,12.11166 -8.956247,20.07019 10.486203,-7.31368 12.625375,-13.26341 15.075495,-25.25955 1.295896,9.87808 0.863328,16.80013 -2.008454,25.64343 7.876332,-12.20851 8.646186,-21.49051 7.559523,-38.96166 3.19644,21.53529 5.941914,32.6117 12.284226,40.28457 -2.004807,-5.67554 -3.639157,-16.14333 -2.910963,-25.6406 2.136015,7.58689 5.320806,12.57601 11.259438,17.87081 -7.335829,-15.32215 -7.041654,-20.31208 -6.080618,-28.51594 1.292679,-11.03493 9.071428,-28.1592 10.205358,-45.54611 1.133927,-17.38691 -3.590774,-69.9256 -3.590774,-69.9256"
           id="path955"
           sodipodi:nodetypes="cssscccccccssc"
           inkscape:export-xdpi="96"
           inkscape:export-ydpi="96" />
        <path
           style="fill:#0f3d87;fill-opacity:1;stroke:#000000;stroke-width:1.28244;stroke-linecap:round;stroke-linejoin:round;stroke-miterlimit:4;stroke-dasharray:none;stroke-opacity:1"
           d="m 64.91741,257.30729 c 0,0 2.719002,13.98413 3.212796,21.07218 0.359027,5.15357 -0.300777,9.15665 -0.188987,15.49702 0.165989,9.41433 14.926235,21.54369 15.308037,21.63914 -10.062595,-5.30374 -13.129575,-7.18284 -17.197917,-13.98514 0.04664,4.54451 1.107158,9.06403 5.85863,15.96951 -16.759383,-11.28238 -14.372512,-39.46337 -14.363093,-45.68787 -3.174497,9.12519 -3.63154,19.16317 -2.74033,31.6555 -5.978102,-16.9865 -5.869659,-28.27144 -4.393977,-48.33371 -3.157479,7.9048 -4.850625,16.13784 -4.488465,26.64733 -3.898361,-17.28742 -3.102828,-29.29089 -1.133931,-55.09003"
           id="path959"
           sodipodi:nodetypes="cascccccccc"
           inkscape:export-xdpi="96"
           inkscape:export-ydpi="96" />
        <path
           style="fill:#0f3d87;fill-opacity:1;stroke:#000000;stroke-width:1.28244;stroke-linecap:round;stroke-linejoin:round;stroke-miterlimit:4;stroke-dasharray:none;stroke-opacity:1"
           d="m 62.177083,214.78497 c 0.377067,10.3081 7.01392,18.79414 11.717261,23.8125 -3.6673,-1.23879 -6.480403,-3.08943 -11.055802,-7.84301 4.136623,9.18064 15.603909,17.58237 32.411458,21.07217 -8.47249,1.13796 -12.894497,0.0437 -21.544645,-3.87425 6.948229,6.62672 12.043916,9.70296 24.946429,12.37872 -9.168032,0.62817 -21.452592,-1.79675 -26.080357,-6.04763 6.52841,8.13467 11.79075,8.82073 18.520835,10.96132 -19.960816,-0.0845 -28.969279,-6.35904 -39.6875,-28.34822"
           id="path957"
           sodipodi:nodetypes="ccccccccc"
           inkscape:export-xdpi="96"
           inkscape:export-ydpi="96" />
        <path
           style="fill:#0f3d87;fill-opacity:1;stroke:#000000;stroke-width:1.28244;stroke-linecap:round;stroke-linejoin:round;stroke-miterlimit:4;stroke-dasharray:none;stroke-opacity:1"
           d="m 64.745749,208.42848 c 2.340127,7.284 4.46624,9.07224 8.839463,12.47989 -1.351017,-4.49385 -3.916891,-8.35381 -3.674954,-16.70434 1.682472,6.1189 3.680692,9.59472 6.518958,12.88154 -1.190093,-4.03597 -1.600473,-7.43321 -2.286514,-12.21002 1.705823,3.22077 7.170799,7.3674 10.999952,9.54679 -6.136412,-5.22785 -11.138442,-18.26018 -13.027423,-26.05404 -3.437187,-14.1817 -3.503319,-33.7649 4.276311,-35.88093 0.62658,-0.17043 1.937702,-0.20045 1.937702,-0.20045 l 4.009044,-17.03843 c -14.755683,-2.19942 -20.028173,0.69832 -26.860585,8.41899 -8.091596,9.14355 -7.091598,33.00384 -26.526501,37.95227 7.306581,-0.071 13.98185,-4.35471 19.510675,-11.35895 -3.53842,6.14959 -10.478886,14.69221 -18.065012,17.49804 5.035137,-0.2157 10.470596,-2.10261 14.795709,-5.51342 -5.3525,9.98094 -12.57481,18.91652 -29.604848,16.47958 9.247966,6.00214 23.521499,-0.86741 26.860587,-2.73952 -4.470291,2.85463 -8.224796,9.0015 -25.190153,8.08491 9.036216,3.35601 15.755699,3.58583 30.790535,-1.52198 -11.015375,10.75656 -18.333393,8.63527 -19.698849,15.88772 5.906709,-5.3823 16.972383,-6.72108 23.088864,-10.72774 2.854155,-1.86964 4.946875,-3.20926 6.682041,-4.9373 -1.656967,4.90506 -2.096444,6.27556 -5.899422,9.89141 7.258386,-3.73097 10.955434,-10.83489 11.57948,-18.40813"
           id="path905"
           sodipodi:nodetypes="ccccccssccscccccccccsccc"
           inkscape:export-xdpi="96"
           inkscape:export-ydpi="96" />
        <path
           transform="translate(31.372024,25.702381)"
           style="fill:#0f3d87;fill-opacity:1;stroke:#000000;stroke-width:1.28244;stroke-linecap:round;stroke-linejoin:round;stroke-miterlimit:4;stroke-dasharray:none;stroke-opacity:1;paint-order:markers fill stroke"
           d="M 125.88754,108.04493 C 126.75747,104.31683 106.43285,94.626734 85.591098,96.611217 64.749347,98.5957 53.004764,107.81146 50.871769,109.54611 c -2.799265,4.7911 -3.365086,13.79414 -3.914549,17.03843 0.746785,13.55567 9.758203,27.29519 16.318841,33.30946 2.938692,2.69395 -0.135603,14.43058 -0.135603,14.43058 1.534537,-2.53832 3.784164,-5.9882 4.07586,-9.95579 0.298219,5.95275 -0.282136,8.0557 -1.378845,11.64313 2.265008,-2.98655 6.202529,-6.03769 7.20817,-10.78736"
           id="path885"
           sodipodi:nodetypes="czccscccc" />
        <path
           transform="translate(31.372024,25.702381)"
           style="fill:#0f3d87;fill-opacity:1;stroke:#000000;stroke-width:1.28244;stroke-linecap:round;stroke-linejoin:round;stroke-miterlimit:4;stroke-dasharray:none;stroke-opacity:1;paint-order:markers fill stroke"
           d="m 89.438614,141.88281 c 0.572286,14.53132 6.579676,24.0348 17.528646,27.0253 -2.95383,-1.47831 -7.355271,-5.21265 -8.362723,-8.8352 5.453163,6.95517 14.212783,6.51576 18.520833,5.29167 -4.32881,-0.83379 -8.63112,-1.70189 -10.86682,-5.24442 4.60348,2.62588 8.78309,3.10645 12.37873,2.45685 -2.83483,-1.26139 -5.66965,-2.49928 -8.50447,-6.09487 3.56966,1.4293 7.08715,3.41266 10.58333,5.6224 -1.28306,-2.8907 -4.65583,-5.13841 -7.46502,-7.55953 3.10238,0.36135 6.21405,0.7692 9.07142,-0.0945 -4.64305,-1.4789 -9.36092,-2.50948 -11.48103,-6.33111 -2.83859,-5.11672 0.94495,-17.52864 0.94495,-17.52864"
           id="path883"
           sodipodi:nodetypes="ccccccccccac" />
        <path
           transform="translate(31.372024,25.702381)"
           style="fill:#0f3d87;fill-opacity:1;stroke:#000000;stroke-width:1.28244;stroke-linecap:round;stroke-linejoin:round;stroke-miterlimit:4;stroke-dasharray:none;stroke-opacity:1;paint-order:markers fill stroke"
           d="m 89.580357,131.34673 c 0,0 -17.048534,8.82116 -20.410715,34.42825 -3.362181,25.60709 17.835936,34.1482 34.286748,40.25528 10.67329,3.96227 15.49533,4.61143 21.75416,7.58907 3.38795,1.61182 9.69715,5.22179 11.46189,6.55818 5.02491,3.8052 6.93769,6.76884 6.93769,6.76884 -2.61591,-3.75337 -4.5909,-8.8974 -8.45352,-11.80474 3.63481,1.05935 10.04461,4.81526 16.04992,16.38064 -0.14639,-3.01449 -2.06483,-8.40124 -5.9095,-14.31457 6.42114,6.15006 9.20665,7.54984 10.43211,19.90272 1.19477,-5.23763 0.60636,-11.7956 -1.74366,-16.83435 2.55173,3.39405 4.93299,5.98565 5.19801,20.23073 3.62654,-22.57579 -11.38052,-36.09495 -20.60854,-42.50458 -9.22803,-6.40964 -19.32797,-10.85744 -32.13826,-16.28985 -9.501526,-4.02927 -15.060956,-13.14636 -16.054526,-19.41466 -2.595013,-16.3716 17.152056,-27.83266 17.152056,-27.83266"
           id="path879"
           sodipodi:nodetypes="czsssccccccczssc" />
        <path
           transform="translate(31.372024,25.702381)"
           style="fill:#0f3d87;fill-opacity:1;stroke:#000000;stroke-width:1.28244;stroke-linecap:round;stroke-linejoin:round;stroke-miterlimit:4;stroke-dasharray:none;stroke-opacity:1;paint-order:markers fill stroke"
           d="m 109.44688,107.47575 c -1.24499,3.22653 -2.12578,5.27979 -9.621709,8.25196 1.650609,0.63737 4.510669,0.89161 7.049229,2.00452 -2.59535,1.95881 -8.086922,1.66564 -10.991458,1.20272 2.534682,1.79644 7.851648,3.01495 9.989198,3.07359 -4.30111,1.37564 -14.663745,-0.36527 -18.708868,-1.60362 2.70809,2.50962 14.141038,5.76461 13.998238,5.47903 -4.876062,1.00726 -15.829252,-1.60798 -21.916097,-3.47451 3.926812,2.96797 13.30202,6.39035 16.971617,6.74856 -3.449707,2.73383 -11.076648,0.96546 -16.303442,-0.56796 5.855916,4.80956 15.29224,5.56734 22.216782,5.47903 -2.993447,4.72339 -10.185313,4.40458 -17.339112,3.37428 9.953992,5.82302 18.088782,3.37962 23.486312,-1.23611 0.30861,5.02534 -0.25433,7.20034 -0.76841,11.72645 2.81255,-3.20751 4.7088,-7.20383 4.6104,-12.89576 0.57564,6.74785 2.03394,10.76803 4.2095,12.09394 -1.30345,-8.36382 -0.12635,-14.24708 1.9377,-19.2434 0.79143,5.12641 2.32802,10.67412 5.82982,12.47815 -0.6602,-3.47483 -1.20309,-7.67139 -0.0835,-11.40908 0.68603,6.90635 3.84974,9.79136 7.60048,11.44249 -0.61868,-1.54183 -1.371,-5.62723 -1.24096,-9.8256 3.14942,2.9202 4.13586,5.88292 4.51501,10.29331 3.779,-6.60658 2.11355,-18.69983 -1.55351,-26.44297 -3.40865,-7.19748 -9.72965,-9.26839 -15.14364,-10.36775"
           id="path881"
           sodipodi:nodetypes="ccccccccccccccccccccccsc" />
        <path
           style="fill:#0f3d87;fill-opacity:1;stroke:#000000;stroke-width:1.28244;stroke-linecap:round;stroke-linejoin:round;stroke-miterlimit:4;stroke-dasharray:none;stroke-opacity:1"
           d="M 124.16518,115.28274 C 87.700698,106.45799 59.425473,77.543127 53.861607,46.680059"
           id="path909"
           sodipodi:nodetypes="cc"
           inkscape:export-xdpi="96"
           inkscape:export-ydpi="96" />
        <path
           style="fill:#0f3d87;fill-opacity:1;stroke:#000000;stroke-width:1.28244;stroke-linecap:round;stroke-linejoin:round;stroke-miterlimit:4;stroke-dasharray:none;stroke-opacity:1"
           d="m 114.09194,126.12891 c -7.26685,-2.31708 -10.1607,-3.12699 -23.586533,-1.87089 4.100642,-1.11499 6.205584,-2.96666 15.234363,-3.74178 -5.57556,-1.23345 -11.374331,-1.66274 -19.777945,0.46772 7.360988,-3.90144 12.748694,-4.62642 21.782465,-3.20723 -2.88805,-2.27018 -5.82207,-4.24616 -7.48355,-11.09168 4.60231,4.27027 9.1782,8.30281 13.4303,9.42125 -1.27852,-1.3464 -2.39454,-3.45109 -3.14042,-7.2831 7.13049,7.80767 7.14212,6.58309 17.3057,12.49485 -1.1353,-1.69351 -3.52947,-3.41357 -4.94448,-7.48354 5.05297,4.70395 11.17884,7.99676 15.86223,10.63773"
           id="path901"
           sodipodi:nodetypes="ccccccccccc"
           inkscape:export-xdpi="96"
           inkscape:export-ydpi="96" />
        <path
           style="fill:#0f3d87;fill-opacity:1;stroke:#000000;stroke-width:1.28244;stroke-linecap:round;stroke-linejoin:round;stroke-miterlimit:4;stroke-dasharray:none;stroke-opacity:1"
           d="M 122.91184,113.83451 C 98.438491,93.885059 79.333883,68.849439 61.573481,42.540361"
           id="path907"
           sodipodi:nodetypes="cc"
           inkscape:export-xdpi="96"
           inkscape:export-ydpi="96" />
        <path
           style="fill:#0f3d87;fill-opacity:1;stroke:#000000;stroke-width:1.28244;stroke-linecap:round;stroke-linejoin:round;stroke-miterlimit:4;stroke-dasharray:none;stroke-opacity:1"
           d="m 39.120535,212.98958 c -6.402426,12.47879 -9.72056,24.67487 -19.151828,32.91399 4.568977,-1.51496 9.578657,-3.25479 14.587333,-10.1194 -7.067526,14.16632 -6.314874,30.94079 -6.018838,39.85497 0.361432,7.97886 -2.370842,14.47881 -5.197172,20.6942 9.095518,-9.97703 11.245497,-17.97056 12.520458,-42.23884 2.649253,30.18441 -3.873813,43.12713 -14.693822,53.38914 10.056703,-4.82041 15.894254,-11.65472 20.316219,-26.36385"
           id="path961"
           sodipodi:nodetypes="cccccccc"
           inkscape:export-xdpi="96"
           inkscape:export-ydpi="96" />
      </g>
    </g>
  </g>
</svg>
